<svg width="385" height="385" viewBox="0 0 385 385" fill="none" xmlns="http://www.w3.org/2000/svg">
<g clip-path="url(#clip0_622_2261)">
<mask id="mask0_622_2261" style="mask-type:luminance" maskUnits="userSpaceOnUse" x="0" y="0" width="385" height="385">
<path d="M192.5 385C299.177 385 385 299.177 385 192.5C385 85.8233 299.177 0 192.5 0C85.8233 0 0 85.8233 0 192.5C0 299.177 85.8233 385 192.5 385Z" fill="white"/>
</mask>
<g mask="url(#mask0_622_2261)">
<path d="M385 336.512L381.362 338.728L176.168 0H385V336.512Z" fill="#FF97D6"/>
<path d="M381.362 338.728L377.844 340.853L171.377 0H176.168L381.362 338.728Z" fill="#FF97D6"/>
<path d="M377.844 340.853L374.341 342.979L166.572 0H171.377L377.844 340.853Z" fill="#FF98D5"/>
<path d="M374.341 342.979L370.838 345.105L161.781 0H166.572L374.341 342.979Z" fill="#FF98D4"/>
<path d="M370.838 345.105L367.32 347.231L156.991 0H161.781L370.838 345.105Z" fill="#FF99D3"/>
<path d="M367.32 347.231L363.817 349.356L152.186 0H156.991L367.32 347.231Z" fill="#FF99D2"/>
<path d="M363.817 349.356L360.299 351.482L147.395 0H152.186L363.817 349.356Z" fill="#FE9AD1"/>
<path d="M360.299 351.482L356.796 353.608L142.59 0H147.395L360.299 351.482Z" fill="#FE9AD0"/>
<path d="M356.796 353.608L353.293 355.734L137.799 0H142.59L356.796 353.608Z" fill="#FE9BCF"/>
<path d="M353.293 355.734L349.775 357.859L133.009 0H137.799L353.293 355.734Z" fill="#FE9BCE"/>
<path d="M349.775 357.859L346.272 359.985L128.204 0H133.009L349.775 357.859Z" fill="#FE9CCD"/>
<path d="M346.272 359.985L342.77 362.111L123.413 0H128.204L346.272 359.985Z" fill="#FE9CCC"/>
<path d="M342.769 362.111L339.252 364.237L118.608 0H123.413L342.769 362.111Z" fill="#FE9DCB"/>
<path d="M339.252 364.237L335.749 366.362L113.817 0H118.608L339.252 364.237Z" fill="#FE9DCA"/>
<path d="M335.749 366.362L332.231 368.473L109.027 0H113.817L335.749 366.362Z" fill="#FE9EC9"/>
<path d="M332.231 368.473L328.728 370.599L104.222 0H109.027L332.231 368.473Z" fill="#FD9EC8"/>
<path d="M328.728 370.599L325.225 372.725L99.4312 0H104.222L328.728 370.599Z" fill="#FD9FC7"/>
<path d="M325.225 372.725L321.707 374.85L94.6407 0H99.4312L325.225 372.725Z" fill="#FD9FC6"/>
<path d="M321.707 374.85L318.204 376.976L89.8353 0H94.6407L321.707 374.85Z" fill="#FDA0C5"/>
<path d="M318.204 376.976L314.686 379.102L85.0449 0H89.8353L318.204 376.976Z" fill="#FDA0C4"/>
<path d="M314.686 379.102L311.183 381.228L80.2395 0H85.0449L314.686 379.102Z" fill="#FDA1C3"/>
<path d="M311.183 381.228L307.68 383.353L76.6766 2.03593L80.0449 0H80.2395L311.183 381.228Z" fill="#FDA1C2"/>
<path d="M307.68 383.353L304.955 385H303.877L73.1737 4.16167L76.6767 2.03592L307.68 383.353Z" fill="#FDA2C1"/>
<path d="M299.072 385L69.6707 6.28743L73.1736 4.16168L303.877 385H299.072Z" fill="#FDA3C0"/>
<path d="M294.281 385L66.1527 8.41316L69.6707 6.28741L299.072 385H294.281Z" fill="#FDA3BF"/>
<path d="M289.491 385L62.6497 10.5389L66.1527 8.41318L294.281 385H289.491Z" fill="#FCA4BE"/>
<path d="M284.686 385L59.1317 12.6647L62.6497 10.5389L289.491 385H284.686Z" fill="#FCA4BD"/>
<path d="M279.895 385L55.6288 14.7904L59.1318 12.6647L284.686 385H279.895Z" fill="#FCA5BC"/>
<path d="M275.105 385L52.1257 16.9162L55.6287 14.7904L279.895 385H275.105Z" fill="#FCA5BB"/>
<path d="M270.299 385L48.6078 19.0419L52.1257 16.9162L275.105 385H270.299Z" fill="#FCA6BA"/>
<path d="M265.509 385L45.1047 21.1677L48.6077 19.0419L270.299 385H265.509Z" fill="#FCA6B9"/>
<path d="M260.704 385L41.6018 23.2934L45.1048 21.1677L265.509 385H260.704Z" fill="#FCA7B8"/>
<path d="M255.913 385L38.0839 25.4192L41.6018 23.2934L260.704 385H255.913Z" fill="#FCA7B7"/>
<path d="M251.123 385L34.5808 27.5449L38.0838 25.4192L255.913 385H251.123Z" fill="#FCA8B6"/>
<path d="M246.317 385L31.0629 29.6707L34.5808 27.5449L251.123 385H246.317Z" fill="#FBA8B4"/>
<path d="M241.527 385L27.5599 31.7964L31.0629 29.6707L246.317 385H241.527Z" fill="#FBA9B3"/>
<path d="M236.722 385L24.0569 33.9222L27.5599 31.7964L241.527 385H236.722Z" fill="#FBA9B2"/>
<path d="M231.931 385L20.5389 36.0479L24.0569 33.9221L236.722 385H231.931Z" fill="#FBAAB1"/>
<path d="M227.141 385L17.0359 38.1737L20.5389 36.0479L231.931 385H227.141Z" fill="#FBAAB0"/>
<path d="M222.335 385L13.5179 40.2994L17.0359 38.1736L227.141 385H222.335Z" fill="#FBABAF"/>
<path d="M217.545 385L10.015 42.4252L13.518 40.2994L222.335 385H217.545Z" fill="#FBABAE"/>
<path d="M212.74 385L6.51196 44.5509L10.015 42.4252L217.545 385H212.74Z" fill="#FBACAD"/>
<path d="M207.949 385L2.99402 46.6767L6.51198 44.5509L212.74 385H207.949Z" fill="#FBACAC"/>
<path d="M203.159 385L0 49.6407V48.488L2.99401 46.6767L207.949 385H203.159Z" fill="#FAADAB"/>
<path d="M198.353 385L0 57.5599V49.6407L203.159 385H198.353Z" fill="#FAADAA"/>
<path d="M193.563 385L0 65.479V57.5599L198.353 385H193.563Z" fill="#FAAEA9"/>
<path d="M188.772 385L0 73.3982V65.479L193.563 385H188.772Z" fill="#FAAFA8"/>
<path d="M183.967 385L0 81.3024V73.3982L188.772 385H183.967Z" fill="#FAAFA7"/>
<path d="M179.177 385L0 89.2216V81.3024L183.967 385H179.177Z" fill="#FAB0A6"/>
<path d="M174.371 385L0 97.1407V89.2216L179.177 385H174.371Z" fill="#FAB0A5"/>
<path d="M169.581 385L0 105.06V97.1407L174.371 385H169.581Z" fill="#FAB1A4"/>
<path d="M164.79 385L0 112.979V105.06L169.581 385H164.79Z" fill="#FAB1A3"/>
<path d="M159.985 385L0 120.898V112.979L164.79 385H159.985Z" fill="#FAB2A2"/>
<path d="M155.195 385L0 128.817V120.898L159.985 385H155.195Z" fill="#F9B2A1"/>
<path d="M150.389 385L0 136.737V128.817L155.195 385H150.389Z" fill="#F9B3A0"/>
<path d="M145.599 385L0 144.656V136.737L150.389 385H145.599Z" fill="#F9B39F"/>
<path d="M140.808 385L0 152.575V144.656L145.599 385H140.808Z" fill="#F9B49E"/>
<path d="M136.003 385L0 160.479V152.575L140.808 385H136.003Z" fill="#F9B49D"/>
<path d="M131.213 385L0 168.398V160.479L136.003 385H131.213Z" fill="#F9B59C"/>
<path d="M126.407 385L0 176.317V168.398L131.213 385H126.407Z" fill="#F9B59B"/>
<path d="M121.617 385L0 184.237V176.317L126.407 385H121.617Z" fill="#F9B69A"/>
<path d="M116.826 385L0 192.156V184.237L121.617 385H116.826Z" fill="#F9B699"/>
<path d="M112.021 385L0 200.075V192.156L116.826 385H112.021Z" fill="#F8B798"/>
<path d="M107.231 385L0 207.994V200.075L112.021 385H107.231Z" fill="#F8B797"/>
<path d="M102.425 385L0 215.913V207.994L107.231 385H102.425Z" fill="#F8B896"/>
<path d="M97.6347 385L0 223.832V215.913L102.425 385H97.6347Z" fill="#F8B895"/>
<path d="M92.8443 385L0 231.751V223.832L97.6347 385H92.8443Z" fill="#F8B994"/>
<path d="M0 231.751L92.8443 385H0V231.751Z" fill="#F8B994"/>
</g>
<path d="M281.781 228.503L177.635 124.356L192.5 109.491L252.006 168.997L271.856 149.147L206.527 83.8174V42.8144H178.458V83.8174L103.204 159.072L207.35 263.219L192.485 278.084L132.979 218.578L113.129 238.428L178.458 303.757V345.15H206.527V303.757L281.781 228.503ZM142.919 159.072L157.784 144.207L242.081 228.503L227.216 243.368L142.919 159.072Z" fill="#191919"/>
</g>
<defs>
<clipPath id="clip0_622_2261">
<rect width="385" height="385" fill="white"/>
</clipPath>
</defs>
</svg>
