<?xml version="1.0" encoding="UTF-8"?>
<svg id="Layer_1" data-name="Layer 1" xmlns="http://www.w3.org/2000/svg" viewBox="0 0 1000 1000">
  <defs>
    <style>
      .cls-1 {
        fill: #f0f0f0;
      }

      .cls-2 {
        fill: #171719;
      }
    </style>
  </defs>
  <rect class="cls-2" width="1000" height="1000"/>
  <g id="uuid-38adf8a0-6cca-4029-8743-0ad53a7048b9">
    <g>
      <path class="cls-1" d="M776.96,690.53l-132.29,132.29c-9.37,9.37-21.96,14.59-35.21,14.59h-239.4l312.1-312.1,94.8,94.8c19.41,19.41,19.41,50.88,0,70.29h0v.13h0Z"/>
      <path class="cls-1" d="M630.08,162.59l-312.1,312.1-94.8-94.8c-19.41-19.41-19.41-50.88,0-70.43l132.29-132.29c9.37-9.37,21.96-14.59,35.21-14.59h239.4Z"/>
      <path class="cls-1" d="M838.95,629.34l-312.1-312.1,94.8-94.8c19.41-19.41,50.88-19.41,70.29,0l132.29,132.29c9.37,9.37,14.59,21.96,14.59,35.21v239.4h.13Z"/>
      <path class="cls-1" d="M473.15,681.29l-94.8,94.8c-19.41,19.41-50.88,19.41-70.43,0l-132.29-132.29c-9.37-9.37-14.59-21.96-14.59-35.21v-239.4l312.1,312.1h0Z"/>
    </g>
  </g>
</svg>