<svg width="512" height="512" viewBox="0 0 512 512" fill="none" xmlns="http://www.w3.org/2000/svg">
<g clip-path="url(#clip0_761_38502)">
<path d="M255.198 511.197C396.582 511.197 511.198 396.582 511.198 255.197C511.198 113.812 396.582 -0.802734 255.198 -0.802734C113.813 -0.802734 -0.80249 113.812 -0.80249 255.197C-0.80249 396.582 113.813 511.197 255.198 511.197Z" fill="black"/>
<path d="M164.562 355.6H257.099V271.641H164.562V355.6Z" fill="#606060"/>
<path d="M164.562 355.6H257.099V271.641H164.562V355.6Z" fill="url(#paint0_linear_761_38502)" fill-opacity="0.6"/>
<path d="M257.096 355.6H349.633V271.641H257.096V355.6Z" fill="#C1C1C1"/>
<path d="M257.096 355.6H349.633V271.641H257.096V355.6Z" fill="url(#paint1_linear_761_38502)" fill-opacity="0.5"/>
<path d="M257.096 65.8057L105.931 153.081L257.096 240.355L408.259 153.081L257.096 65.8057Z" fill="#F4F4F4"/>
<path d="M332.678 336.975H181.513V424.25L257.096 467.887L332.678 424.25V336.975Z" fill="#07F7BD"/>
<path d="M332.678 336.975H181.513V424.25L257.096 467.887L332.678 424.25V336.975Z" fill="url(#paint2_linear_761_38502)" fill-opacity="0.5"/>
<path d="M257.096 467.887L332.676 424.25V336.975H257.096V467.887Z" fill="#6D6D6D"/>
<path d="M257.113 467.872L333.134 424.487V336.967L257.113 337.715V467.872Z" fill="#07F7BD"/>
<path d="M257.113 467.872L333.134 424.487V336.967L257.113 337.715V467.872Z" fill="url(#paint3_linear_761_38502)"/>
<path d="M257.096 293.34L181.513 336.977L257.096 380.614L332.678 336.977L257.096 293.34Z" fill="#07F7BD"/>
<path d="M257.096 240.354L408.259 153.08V327.629L332.676 371.267V283.991L257.096 327.629V240.354Z" fill="#1A1A1A"/>
<path d="M257.096 240.354L408.259 153.08V327.629L332.676 371.267V283.991L257.096 327.629V240.354Z" fill="url(#paint4_linear_761_38502)" fill-opacity="0.5"/>
<path d="M257.094 240.354L105.931 153.08V327.629L181.512 371.267V283.991L257.094 327.629V240.354Z" fill="#DFDFDF"/>
<path d="M257.094 240.354L105.931 153.08V327.629L181.512 371.267V283.991L257.094 327.629V240.354Z" fill="url(#paint5_linear_761_38502)" fill-opacity="0.2"/>
<path d="M181.513 109.443L105.931 153.081L257.096 240.355L408.26 153.081L332.678 109.443L257.096 153.081L181.513 109.443Z" fill="#F4F4F4"/>
<path d="M257.143 65.8271L180.982 109.797L257.143 153.769L333.303 109.797L257.143 65.8271Z" fill="#DFDFDF"/>
<path d="M257.143 65.8271L180.982 109.797L257.143 153.769L333.303 109.797L257.143 65.8271Z" fill="url(#paint6_linear_761_38502)" fill-opacity="0.2"/>
</g>
<defs>
<linearGradient id="paint0_linear_761_38502" x1="210.831" y1="271.641" x2="210.831" y2="355.6" gradientUnits="userSpaceOnUse">
<stop/>
<stop offset="0.545346" stop-opacity="0"/>
</linearGradient>
<linearGradient id="paint1_linear_761_38502" x1="350.118" y1="321.361" x2="289.646" y2="278.167" gradientUnits="userSpaceOnUse">
<stop stop-opacity="0"/>
<stop offset="1"/>
</linearGradient>
<linearGradient id="paint2_linear_761_38502" x1="181.953" y1="421.568" x2="317.868" y2="437.117" gradientUnits="userSpaceOnUse">
<stop stop-opacity="0"/>
<stop offset="1"/>
</linearGradient>
<linearGradient id="paint3_linear_761_38502" x1="222.846" y1="335.182" x2="360.855" y2="406.393" gradientUnits="userSpaceOnUse">
<stop stop-color="#000001" stop-opacity="0"/>
<stop offset="1" stop-color="#000001"/>
</linearGradient>
<linearGradient id="paint4_linear_761_38502" x1="332.676" y1="153.08" x2="538.442" y2="406.594" gradientUnits="userSpaceOnUse">
<stop stop-opacity="0"/>
<stop offset="1"/>
</linearGradient>
<linearGradient id="paint5_linear_761_38502" x1="138.701" y1="212.741" x2="257.094" y2="352.806" gradientUnits="userSpaceOnUse">
<stop stop-opacity="0"/>
<stop offset="1"/>
</linearGradient>
<linearGradient id="paint6_linear_761_38502" x1="257.143" y1="65.8271" x2="345.553" y2="154.237" gradientUnits="userSpaceOnUse">
<stop stop-opacity="0"/>
<stop offset="1"/>
</linearGradient>
<clipPath id="clip0_761_38502">
<rect width="512" height="512" fill="white"/>
</clipPath>
</defs>
</svg>
