<svg width="512" height="512" viewBox="0 0 512 512" fill="none" xmlns="http://www.w3.org/2000/svg">
<g clip-path="url(#clip0_761_38384)">
<path d="M255.198 511.197C396.582 511.197 511.198 396.582 511.198 255.197C511.198 113.812 396.582 -0.802734 255.198 -0.802734C113.813 -0.802734 -0.80249 113.812 -0.80249 255.197C-0.80249 396.582 113.813 511.197 255.198 511.197Z" fill="black"/>
<path d="M324.908 296.071H187.093V375.639L256.001 415.422L324.908 375.639V296.071Z" fill="white"/>
<path d="M256 415.422L256 415.422L324.907 375.639V296.071H256V415.422Z" fill="#383838"/>
<path d="M256 415.422L256 415.422L324.907 375.639V296.071H256V415.422Z" fill="url(#paint0_linear_761_38384)"/>
<path d="M256.001 256.289L187.093 296.073L256.001 335.856L324.908 296.073L256.001 256.289Z" fill="white"/>
<path d="M256.001 97.1543L187.093 136.938L256.001 176.722L324.908 136.938L256.001 97.1543Z" fill="#DFDFDF"/>
<path d="M256.001 97.1543L187.093 136.938L256.001 176.722L324.908 136.938L256.001 97.1543Z" fill="url(#paint1_linear_761_38384)" fill-opacity="0.2"/>
<path d="M256 256.291L393.815 176.724V335.858L324.907 375.642L324.907 296.075L256 335.858V256.291Z" fill="#1A1A1A"/>
<path d="M255.999 256.291L118.184 176.724V335.858L187.092 375.642L187.092 296.075L255.999 335.858V256.291Z" fill="#DFDFDF"/>
<path d="M255.999 256.291L118.184 176.724V335.858L187.092 375.642L187.092 296.075L255.999 335.858V256.291Z" fill="url(#paint2_linear_761_38384)" fill-opacity="0.2"/>
<path d="M187.092 136.937L118.184 176.72L255.999 256.288L393.814 176.72L324.907 136.937L255.999 176.72L187.092 136.937Z" fill="white"/>
</g>
<defs>
<linearGradient id="paint0_linear_761_38384" x1="290.454" y1="296.071" x2="467.541" y2="426.752" gradientUnits="userSpaceOnUse">
<stop stop-color="#000001" stop-opacity="0"/>
<stop offset="1" stop-color="#000001"/>
</linearGradient>
<linearGradient id="paint1_linear_761_38384" x1="256.001" y1="97.1543" x2="335.991" y2="177.145" gradientUnits="userSpaceOnUse">
<stop stop-opacity="0"/>
<stop offset="1"/>
</linearGradient>
<linearGradient id="paint2_linear_761_38384" x1="148.06" y1="231.116" x2="255.999" y2="358.811" gradientUnits="userSpaceOnUse">
<stop stop-opacity="0"/>
<stop offset="1"/>
</linearGradient>
<clipPath id="clip0_761_38384">
<rect width="512" height="512" fill="white"/>
</clipPath>
</defs>
</svg>
